<?xml version="1.0" encoding="UTF-8"?><svg id="Layer_1" xmlns="http://www.w3.org/2000/svg" viewBox="0 0 576 576"><defs><style>.cls-1{fill:#000;stroke-width:0px;}</style></defs><path class="cls-1" d="M129.69,360.64c9.14,0,11.92-3.72,11.92-13.13v-118.14c0-9.4-2.78-13.13-11.92-13.13h-11.53c-33.19,0-48.29,27.35-48.29,50.98,0,18.81,9.54,35.44,26.83,35.44,5.17,0,10.14-2.41,10.14-3.28,0-.22-.2-.44-.99-.44-10.93,0-19.87-9.84-19.87-21.88s8.94-21.88,19.87-21.88,19.87,9.84,19.87,21.88c0,19.03-13.31,32.16-29.02,32.16-24.84,0-39.55-18.6-39.55-49.89,0-23.85,17.89-47.47,49.69-47.47h135.14v56.45h-3.98c-.2-19.69-20.07-52.07-40.74-52.07h-13.91v63.45h4.37c14.71,0,28.22-19.69,28.42-28.44h3.98v65.63h-3.98c-.2-8.75-13.71-28.44-28.42-28.44h-4.37v72.2h19.87c20.67,0,40.54-41.57,40.74-61.26h3.97v65.64h-122.22v-4.37h3.98Z"/><path class="cls-1" d="M419.72,216.27c-10.07,0-13.13,3.72-13.13,13.13v118.17c0,9.41,3.06,13.13,13.13,13.13h12.69c36.55,0,53.18-27.36,53.18-50.99,0-18.82-10.5-35.45-29.54-35.45-4.38,0-11.16,2.63-11.16,3.5,0,.22.22.22,1.09.22,12.04,0,21.88,9.85,21.88,21.88s-9.85,21.88-21.88,21.88-21.88-9.85-21.88-21.88c0-19.04,14.66-32.17,31.95-32.17,27.36,0,43.55,18.6,43.55,49.9,0,23.85-19.7,47.49-54.71,47.49h-101.76v-4.38h4.38c10.07,0,13.13-3.72,13.13-13.13v-51.43h-41.58v51.43c0,9.41,3.06,13.13,13.13,13.13h4.38v4.38h-80.97v-4.38h4.38c10.07,0,13.13-3.72,13.13-13.13v-118.17c0-9.41-3.06-13.13-13.13-13.13h-4.38v-4.38h80.97v4.38h-4.38c-10.07,0-13.13,3.72-13.13,13.13v62.37h41.58v-62.37c0-9.41-3.06-13.13-13.13-13.13h-4.38v-4.38h80.97v4.38h-4.38Z"/></svg>