<svg width="64" height="64" viewBox="0 0 64 64" fill="none" xmlns="http://www.w3.org/2000/svg">
<rect width="64" height="64" rx="4" fill="#FFF3D9"/>
<path d="M11.6239 41.4235C12.8107 41.4235 13.1717 40.9405 13.1717 39.7186V24.3782C13.1717 23.1576 12.8107 22.6732 11.6239 22.6732H10.1267C5.81701 22.6732 3.85628 26.2246 3.85628 29.293C3.85628 31.7354 5.09504 33.8948 7.34014 33.8948C8.01146 33.8948 8.65682 33.5819 8.65682 33.4689C8.65682 33.4404 8.63085 33.4118 8.52827 33.4118C7.10901 33.4118 5.94815 32.1341 5.94815 30.5707C5.94815 29.0073 7.10901 27.7296 8.52827 27.7296C9.94752 27.7296 11.1084 29.0073 11.1084 30.5707C11.1084 33.0417 9.38008 34.7467 7.34014 34.7467C4.11468 34.7467 2.20459 32.3314 2.20459 28.2685C2.20459 25.1715 4.5276 22.1045 8.65682 22.1045H26.2047V29.4345H25.6879C25.6619 26.8778 23.0818 22.6732 20.3978 22.6732H18.5916V30.9122H19.1591C21.0691 30.9122 22.8234 28.3555 22.8494 27.2193H23.3662V35.7413H22.8494C22.8234 34.6051 21.0691 32.0484 19.1591 32.0484H18.5916V41.4235H21.1717C23.8557 41.4235 26.4358 36.0257 26.4618 33.4689H26.9773V41.9923H11.1071V41.4248H11.6239V41.4235Z" fill="black"/>
<path d="M49.2838 22.6771C47.9762 22.6771 47.5789 23.1602 47.5789 24.3821V39.7264C47.5789 40.9483 47.9762 41.4313 49.2838 41.4313H50.9316C55.6776 41.4313 57.837 37.8786 57.837 34.8103C57.837 32.3665 56.4736 30.2071 54.0013 30.2071C53.4325 30.2071 52.5521 30.5486 52.5521 30.6616C52.5521 30.6902 52.5807 30.6902 52.6937 30.6902C54.2571 30.6902 55.5348 31.9692 55.5348 33.5313C55.5348 35.0934 54.2558 36.3724 52.6937 36.3724C51.1316 36.3724 49.8526 35.0934 49.8526 33.5313C49.8526 31.0589 51.7562 29.354 54.0013 29.354C57.5539 29.354 59.6562 31.7692 59.6562 35.8335C59.6562 38.9304 57.0982 42.0001 52.5521 42.0001H39.3386V41.4313H39.9074C41.215 41.4313 41.6123 40.9483 41.6123 39.7264V33.0482H36.2132V39.7264C36.2132 40.9483 36.6105 41.4313 37.9181 41.4313H38.4868V42.0001H27.9729V41.4313H28.5416C29.8492 41.4313 30.2466 40.9483 30.2466 39.7264V24.3821C30.2466 23.1602 29.8492 22.6771 28.5416 22.6771H27.9729V22.1084H38.4868V22.6771H37.9181C36.6105 22.6771 36.2132 23.1602 36.2132 24.3821V32.4808H41.6123V24.3821C41.6123 23.1602 41.215 22.6771 39.9074 22.6771H39.3386V22.1084H49.8526V22.6771H49.2838Z" fill="black"/>
</svg>
